<?xml version="1.0" encoding="UTF-8"?>
<svg width="700px" height="700px" viewBox="0 0 700 700" version="1.1" xmlns="http://www.w3.org/2000/svg" xmlns:xlink="http://www.w3.org/1999/xlink">
    <!-- Generator: Sketch 43.2 (39069) - http://www.bohemiancoding.com/sketch -->
    <title>Artboard</title>
    <desc>Created with Sketch.</desc>
    <defs></defs>
    <g id="Page-1" stroke="none" stroke-width="1" fill="none" fill-rule="evenodd">
        <g id="Artboard" fill-rule="nonzero">
            <g id="weekly-calendar" transform="translate(130.000000, 94.000000)">
                <polygon id="Shape" fill="#C2B8B9" points="0.175 478.426 0.175 512 447.825 512 447.825 478.426 224 444.852"></polygon>
                <polygon id="Shape" fill="#D6CED1" points="0.175 444.852 0.175 478.426 447.825 478.426 447.825 366.514"></polygon>
                <polygon id="Shape" fill="#ECE7EA" points="447.825 153.88 447.825 366.514 391.869 388.896 369.486 444.852 0.175 444.852 0.175 153.88 224 120.306"></polygon>
                <rect id="Rectangle-path" fill="#5A8BB0" x="0.175" y="30.776" width="447.65" height="123.104"></rect>
                <g id="Group" transform="translate(155.000000, 231.000000)" fill="#FFFFFF">
                    <path d="M128.966,136.633 C124.331,136.633 120.573,132.876 120.573,128.24 L120.573,28.756 L110.952,38.377 C107.674,41.654 102.359,41.654 99.083,38.377 C95.805,35.098 95.805,29.784 99.083,26.506 L123.032,2.558 C125.433,0.156 129.044,-0.559 132.179,0.739 C135.316,2.037 137.361,5.099 137.361,8.493 L137.361,128.24 C137.36,132.876 133.603,136.633 128.966,136.633 Z" id="Shape"></path>
                    <path d="M40.238,136.633 C18.403,136.633 0.639,118.869 0.639,97.034 C0.639,92.397 4.397,88.641 9.032,88.641 C13.667,88.641 17.425,92.398 17.425,97.034 C17.425,109.612 27.658,119.846 40.237,119.846 C52.815,119.846 63.048,109.612 63.048,97.034 C63.048,87.913 57.633,79.685 49.25,76.074 C46.171,74.748 44.177,71.717 44.177,68.365 C44.177,65.013 46.171,61.983 49.25,60.656 C57.631,57.045 63.048,48.818 63.048,39.696 C63.048,27.118 52.815,16.884 40.237,16.884 C27.658,16.884 17.425,27.118 17.425,39.696 C17.425,44.333 13.667,48.089 9.032,48.089 C4.397,48.089 0.639,44.332 0.639,39.696 C0.639,17.861 18.403,0.097 40.238,0.097 C62.072,0.097 79.836,17.861 79.836,39.696 C79.836,50.737 75.264,61.024 67.564,68.364 C75.265,75.704 79.836,85.99 79.836,97.032 C79.838,118.869 62.074,136.633 40.238,136.633 Z" id="Shape"></path>
                </g>
                <g id="Group" transform="translate(81.000000, 0.000000)" fill="#E1DFE0">
                    <path d="M277.295,100.721 C272.66,100.721 268.902,96.964 268.902,92.328 L268.902,8.393 C268.902,3.756 272.66,0 277.295,0 C281.93,0 285.688,3.757 285.688,8.393 L285.688,92.327 C285.689,96.964 281.931,100.721 277.295,100.721 Z" id="Shape"></path>
                    <path d="M8.705,100.721 C4.07,100.721 0.312,96.964 0.312,92.328 L0.312,8.393 C0.312,3.756 4.07,0 8.705,0 C13.34,0 17.098,3.757 17.098,8.393 L17.098,92.327 C17.098,96.964 13.34,100.721 8.705,100.721 Z" id="Shape"></path>
                </g>
                <polygon id="Shape" fill="#FFFFFF" points="447.825 366.514 369.486 444.852 369.486 366.514"></polygon>
            </g>
        </g>
    </g>
</svg>