<?xml version="1.0" encoding="UTF-8"?>
<svg width="630px" height="770px" viewBox="0 0 630 770" version="1.1" xmlns="http://www.w3.org/2000/svg" xmlns:xlink="http://www.w3.org/1999/xlink">
    <!-- Generator: Sketch 43.2 (39069) - http://www.bohemiancoding.com/sketch -->
    <title>Artboard</title>
    <desc>Created with Sketch.</desc>
    <defs></defs>
    <g id="Page-1" stroke="none" stroke-width="1" fill="none" fill-rule="evenodd">
        <g id="Artboard">
            <path d="M60.2611269,48.0039527 C60.2611269,45.2403459 62.4921811,43 65.2544014,43 L555.680664,43 C558.438373,43 560.673938,45.2338646 560.673938,48.0027199 L560.673938,137.164235 C560.673938,139.927161 558.434416,142.166955 555.665154,142.166955 L87.9486992,142.166955 L53.2190485,158.151696 C50.7097453,159.306633 49.3915395,158.125508 50.2743138,155.51488 L60.2611269,125.980878 L60.2611269,48.0039527 Z" id="Rectangle" fill="#ECE7EA"></path>
            <text id="Hey-John,-can-we-two" font-family="LucidaGrande, Lucida Grande" font-size="25" font-weight="normal" fill="#5A8BB0">
                <tspan x="104" y="92">Hey John, can we two meet on </tspan>
                <tspan x="104" y="121">Tuesday at 2PM, just 30 min?</tspan>
            </text>
            <path d="M40.2611269,271.003953 C40.2611269,268.240346 42.4921811,266 45.2544014,266 L535.680664,266 C538.438373,266 540.673938,268.233865 540.673938,271.00272 L540.673938,360.164235 C540.673938,362.927161 538.434416,365.166955 535.665154,365.166955 L67.9486992,365.166955 L33.2190485,381.151696 C30.7097453,382.306633 29.3915395,381.125508 30.2743138,378.51488 L40.2611269,348.980878 L40.2611269,271.003953 Z" id="Rectangle" fill="#ECE7EA"></path>
            <rect id="Rectangle" fill="#FFFFFF" opacity="0.571614583" x="68" y="282" width="448" height="67.9172337" rx="5"></rect>
            <path d="M40.2611269,271.003953 C40.2611269,268.240346 42.4921811,266 45.2544014,266 L535.680664,266 C538.438373,266 540.673938,268.233865 540.673938,271.00272 L540.673938,360.164235 C540.673938,362.927161 538.434416,365.166955 535.665154,365.166955 L67.9486992,365.166955 L33.2190485,381.151696 C30.7097453,382.306633 29.3915395,381.125508 30.2743138,378.51488 L40.2611269,348.980878 L40.2611269,271.003953 Z" id="Rectangle" fill="#ECE7EA"></path>
            <text id="Wednesday-3PM?" font-family="LucidaGrande, Lucida Grande" font-size="25" font-weight="normal" fill="#5A8BB0">
                <tspan x="83" y="323">Wednesday 3PM?</tspan>
            </text>
            <path d="M34.2611269,495.003953 C34.2611269,492.240346 36.4921811,490 39.2544014,490 L529.680664,490 C532.438373,490 534.673938,492.233865 534.673938,495.00272 L534.673938,584.164235 C534.673938,586.927161 532.434416,589.166955 529.665154,589.166955 L61.9486992,589.166955 L27.2190485,605.151696 C24.7097453,606.306633 23.3915395,605.125508 24.2743138,602.51488 L34.2611269,572.980878 L34.2611269,495.003953 Z" id="Rectangle" fill="#ECE7EA"></path>
            <rect id="Rectangle" fill="#FFFFFF" opacity="0.571614583" x="62" y="506" width="448" height="67.9172337" rx="5"></rect>
            <path d="M34.2611269,495.003953 C34.2611269,492.240346 36.4921811,490 39.2544014,490 L529.680664,490 C532.438373,490 534.673938,492.233865 534.673938,495.00272 L534.673938,584.164235 C534.673938,586.927161 532.434416,589.166955 529.665154,589.166955 L61.9486992,589.166955 L27.2190485,605.151696 C24.7097453,606.306633 23.3915395,605.125508 24.2743138,602.51488 L34.2611269,572.980878 L34.2611269,495.003953 Z" id="Rectangle" fill="#ECE7EA"></path>
            <text id="…-I-don’t-want-to-cr" font-family="LucidaGrande, Lucida Grande" font-size="25" font-weight="normal" fill="#5A8BB0">
                <tspan x="83" y="538">… I don’t want to create a hundred </tspan>
                <tspan x="83" y="567">of 30 min timeslots again…</tspan>
            </text>
            <path d="M100.261127,160.003953 C100.261127,157.240346 102.492181,155 105.254401,155 L595.680664,155 C598.438373,155 600.673938,157.233865 600.673938,160.00272 L600.673938,249.164235 C600.673938,251.927161 598.434416,254.166955 595.665154,254.166955 L127.948699,254.166955 L93.2190485,270.151696 C90.7097453,271.306633 89.3915395,270.125508 90.2743138,267.51488 L100.261127,237.980878 L100.261127,160.003953 Z" id="Rectangle" fill="#ECE7EA" transform="translate(345.336969, 212.797364) scale(-1, 1) translate(-345.336969, -212.797364) "></path>
            <text id="No,-sorry,-can’t-mak" font-family="LucidaGrande, Lucida Grande" font-size="25" font-weight="normal" fill="#F14742">
                <tspan x="129" y="198">No, sorry, can’t make it, </tspan>
                <tspan x="129" y="227">another time?</tspan>
            </text>
            <path d="M100.261127,386.003953 C100.261127,383.240346 102.492181,381 105.254401,381 L595.680664,381 C598.438373,381 600.673938,383.233865 600.673938,386.00272 L600.673938,475.164235 C600.673938,477.927161 598.434416,480.166955 595.665154,480.166955 L127.948699,480.166955 L93.2190485,496.151696 C90.7097453,497.306633 89.3915395,496.125508 90.2743138,493.51488 L100.261127,463.980878 L100.261127,386.003953 Z" id="Rectangle" fill="#ECE7EA" transform="translate(345.336969, 438.797364) scale(-1, 1) translate(-345.336969, -438.797364) "></path>
            <text id="Can’t-make-it---my-c" font-family="LucidaGrande, Lucida Grande" font-size="25" font-weight="normal" fill="#F14742">
                <tspan x="130" y="425">Can’t make it - my cat has </tspan>
                <tspan x="130" y="454">a Birthday then…</tspan>
            </text>
        </g>
    </g>
</svg>