<?xml version="1.0" encoding="UTF-8"?>
<svg width="700px" height="700px" viewBox="0 0 700 700" version="1.1" xmlns="http://www.w3.org/2000/svg" xmlns:xlink="http://www.w3.org/1999/xlink">
    <!-- Generator: Sketch 43.2 (39069) - http://www.bohemiancoding.com/sketch -->
    <title>Artboard</title>
    <desc>Created with Sketch.</desc>
    <defs></defs>
    <g id="Page-1" stroke="none" stroke-width="1" fill="none" fill-rule="evenodd">
        <g id="Artboard">
            <g id="Group-6" transform="translate(101.000000, 133.000000)">
                <rect id="Rectangle" fill="#F14742" x="0" y="0" width="369.052083" height="281.799981" rx="26"></rect>
                <rect id="Rectangle" fill="#D9D8DA" opacity="0.246773098" x="45.4817708" y="29.8862275" width="276.789062" height="50.6766467" rx="5"></rect>
                <path d="M485.393432,355.268332 L456.025203,364.62402 L488.382234,396.58929 C490.4614,398.668332 490.4614,402.046775 488.382234,404.125817 L469.019994,423.486895 C466.940828,425.435996 463.432234,425.435996 461.483015,423.486895 L427.436661,389.442583 L416.650984,421.667733 C416.001244,423.746775 414.181973,425.176116 411.583015,425.306056 C409.503848,425.306056 407.684578,424.136595 406.774942,422.317434 L339.202025,282.631805 C338.162442,280.552763 338.682234,278.083901 340.241609,276.524619 C341.930932,274.965338 344.269994,274.575517 346.349161,275.615038 L486.173119,345.392883 C487.99239,346.432404 489.161921,348.381505 489.031973,350.590488 C488.902025,352.79947 487.472598,354.618631 485.393432,355.268332 Z" id="Shape" fill="#694B4B" fill-rule="nonzero" transform="translate(414.301391, 350.170462) rotate(7.000000) translate(-414.301391, -350.170462) "></path>
            </g>
        </g>
    </g>
</svg>