<?xml version="1.0" encoding="UTF-8"?>
<svg width="700px" height="700px" viewBox="0 0 700 700" version="1.1" xmlns="http://www.w3.org/2000/svg" xmlns:xlink="http://www.w3.org/1999/xlink">
    <!-- Generator: Sketch 43.2 (39069) - http://www.bohemiancoding.com/sketch -->
    <title>Artboard</title>
    <desc>Created with Sketch.</desc>
    <defs></defs>
    <g id="Page-1" stroke="none" stroke-width="1" fill="none" fill-rule="evenodd">
        <g id="Artboard" fill-rule="nonzero">
            <g id="mailing" transform="translate(99.000000, 89.000000)">
                <path d="M492.745469,87.1081792 L250.707038,240.881443 L8.66860646,87.1081792 C3.35874028,92.001722 0,98.9836359 0,106.728299 L0,409.012546 C0,416.795117 3.39091432,423.805749 8.74559435,428.701589 L250.705889,275.006438 L499.350341,435.746682 L501.411778,435.746682 L501.411778,106.728299 C501.414076,98.9836359 498.055336,92.001722 492.745469,87.1081792 Z" id="Shape" fill="#D6CED1"></path>
                <path d="M26.7423751,435.746682 L499.352639,435.746682 L330.567609,257.870997 L170.845318,257.870997 L8.74559435,428.702738 C13.5073527,433.05868 19.8180615,435.746682 26.7423751,435.746682 Z" id="Shape" fill="#C2B8B9"></path>
                <path d="M26.7423751,79.9953114 C19.7812911,79.9953114 13.4395574,82.7120317 8.66860646,87.1093279 L232.257522,321.665105 C242.404986,332.309134 259.007941,332.309134 269.155404,321.665105 L492.745469,87.1081792 C487.974519,82.710883 481.632785,79.9941627 474.671701,79.9941627 L26.7423751,79.9941627 L26.7423751,79.9953114 Z" id="Shape" fill="#ECE7EA"></path>
                <ellipse id="Oval" fill="#F14742" cx="493.003787" cy="86.8845076" rx="86.9112829" ry="86.8845076"></ellipse>
                <path d="M492.394937,130.393417 C486.855256,130.393417 482.366977,125.905372 482.366977,120.368547 L482.366977,76.3553794 C478.839323,77.5982933 474.756667,76.8114208 471.932246,73.9890183 C468.016205,70.0741841 468.016205,63.7263631 471.932246,59.8115289 L485.302859,46.445035 C488.172094,43.5766838 492.485714,42.7185907 496.232841,44.2716587 C499.981117,45.823578 502.424046,49.4799505 502.424046,53.5337797 L502.424046,120.368547 C502.422897,125.904223 497.934618,130.393417 492.394937,130.393417 Z" id="Shape" fill="#FFFFFF"></path>
            </g>
        </g>
    </g>
</svg>