<?xml version="1.0" encoding="UTF-8"?>
<svg width="700px" height="700px" viewBox="0 0 700 700" version="1.1" xmlns="http://www.w3.org/2000/svg" xmlns:xlink="http://www.w3.org/1999/xlink">
    <!-- Generator: Sketch 43.2 (39069) - http://www.bohemiancoding.com/sketch -->
    <title>Artboard</title>
    <desc>Created with Sketch.</desc>
    <defs></defs>
    <g id="Page-1" stroke="none" stroke-width="1" fill="none" fill-rule="evenodd">
        <g id="Artboard">
            <g id="Group-7" transform="translate(79.000000, 104.000000)">
                <g id="Group-3" fill-rule="nonzero">
                    <g id="Group-2">
                        <path d="M36.7725835,258.338677 L20.3260455,258.338677 C9.10121441,258.338677 0,249.244125 0,238.02751 L0,186.785677 C0,175.569063 9.10121441,166.47451 20.3260455,166.47451 L36.7725835,166.47451 L36.7725835,258.338677 Z" id="XMLID_117_" fill="#2D3039"></path>
                        <path d="M184.340961,296.471493 L61.1160337,288.984563 C47.6664613,288.029176 37.2414339,276.849307 37.2414339,263.372833 L37.2414339,161.082083 C37.2414339,149.369402 46.2966826,139.65936 57.981171,138.823396 L184.331768,131.115992 L184.331768,296.471493 L184.340961,296.471493 Z" id="XMLID_116_" fill="#5A8BB0"></path>
                        <path d="M386.09374,415.646877 L205.595514,325.463824 C192.568827,318.950654 184.331768,305.648723 184.331768,291.097439 L184.331768,135.745946 C184.331768,121.580492 192.136749,108.563339 204.630234,101.875628 L385.137653,5.25289706 C410.758951,-8.46242306 441.749045,10.0849522 441.749045,39.114029 L441.749045,381.271305 C441.749045,409.841061 411.659879,428.425182 386.09374,415.646877" id="XMLID_115_" fill="#D8D2D3"></path>
                        <path d="M450.464148,166.47451 L441.271002,166.47451 L441.271002,258.338677 L450.464148,258.338677 C470.689069,258.338677 487.236731,241.803127 487.236731,221.59301 L487.236731,203.220177 C487.236731,183.01006 470.689069,166.47451 450.464148,166.47451" id="XMLID_114_" fill="#5A8BB0"></path>
                        <path d="M514.806976,276.71151 C512.959153,276.71151 511.083751,276.151139 509.456565,274.993651 C505.338035,272.035624 504.381948,266.294114 507.351334,262.169413 C512.554655,254.912144 524.606869,235.556364 524.018508,212.64544 C523.55885,194.493081 517.941838,177.654379 507.314562,162.579469 C504.391141,158.427209 505.384001,152.704071 509.53011,149.782791 C513.676219,146.86151 519.421935,147.853643 522.345355,151.996717 C535.105442,170.093958 541.853211,190.340821 542.413993,212.176933 C543.149444,240.636452 528.596694,264.107747 522.299389,272.880775 C520.48834,275.37948 517.675237,276.71151 514.806976,276.71151" id="XMLID_113_" fill="#D1D4D2"></path>
                        <path d="M74.0232105,289.792968 L74.0232105,322.65278 L101.602648,322.65278 C106.677265,322.65278 110.795794,326.759109 110.795794,331.839197 C110.795794,336.910099 106.677265,341.025614 101.602648,341.025614 L74.0232105,341.025614 L74.0232105,359.398447 L101.602648,359.398447 C106.677265,359.398447 110.795794,363.504775 110.795794,368.584864 C110.795794,373.655766 106.677265,377.771281 101.602648,377.771281 L74.0232105,377.771281 L74.0232105,396.144114 L101.602648,396.144114 C106.677265,396.144114 110.795794,400.250442 110.795794,405.330531 C110.795794,410.401433 106.677265,414.516947 101.602648,414.516947 L74.0232105,414.516947 L74.0232105,432.889781 L101.602648,432.889781 C106.677265,432.889781 110.795794,436.996109 110.795794,442.076197 C110.795794,447.147099 106.677265,451.262614 101.602648,451.262614 L74.0232105,451.262614 L74.0232105,457.233785 C74.0232105,474.917637 88.5024153,489.386243 106.199221,489.386243 C123.896027,489.386243 138.375232,474.917637 138.375232,457.233785 L138.375232,293.798245 L74.0232105,289.792968 Z" id="XMLID_112_" fill="#5A8BB0"></path>
                        <path d="M110.795794,442.067011 C110.795794,436.986923 106.686458,432.880594 101.602648,432.880594 L74.0232105,432.880594 L74.0232105,451.253428 L101.602648,451.253428 C106.677265,451.253428 110.795794,447.147099 110.795794,442.067011" id="XMLID_111_" fill="#78B9EB"></path>
                        <path d="M110.795794,405.321344 C110.795794,400.241256 106.686458,396.134927 101.602648,396.134927 L74.0232105,396.134927 L74.0232105,414.507761 L101.602648,414.507761 C106.677265,414.507761 110.795794,410.401433 110.795794,405.321344" id="XMLID_110_" fill="#78B9EB"></path>
                        <path d="M110.795794,368.575677 C110.795794,363.495589 106.686458,359.389261 101.602648,359.389261 L74.0232105,359.389261 L74.0232105,377.762094 L101.602648,377.762094 C106.677265,377.762094 110.795794,373.655766 110.795794,368.575677" id="XMLID_109_" fill="#78B9EB"></path>
                        <path d="M110.795794,331.830011 C110.795794,326.749922 106.686458,322.643594 101.602648,322.643594 L74.0232105,322.643594 L74.0232105,341.016427 L101.602648,341.016427 C106.677265,341.016427 110.795794,336.910099 110.795794,331.830011" id="XMLID_108_" fill="#78B9EB"></path>
                        <path d="M384.659609,5.25289706 L367.725835,14.3198903 L367.725835,406.708493 L385.62489,415.646877 C411.191028,428.425182 441.271002,409.850248 441.271002,381.280492 L441.271002,39.1232154 C441.271002,10.0849522 410.271714,-8.46242306 384.659609,5.25289706" id="XMLID_107_" fill="#556180"></path>
                        <path d="M284.031435,107.286427 C281.779114,102.748337 276.290806,100.865122 271.712619,103.124981 L230.793927,123.344284 C218.861224,129.728843 211.442355,142.102947 211.442355,155.643725 L211.442355,175.660927 C211.442355,180.741015 215.551691,184.847343 220.635501,184.847343 C225.719311,184.847343 229.828647,180.741015 229.828647,175.660927 L229.828647,155.643725 C229.828647,148.891709 233.524291,142.718437 239.214849,139.677733 L279.876133,119.596226 C284.417547,117.345554 286.292949,111.833704 284.031435,107.286427" id="XMLID_106_" fill="#FFFFFF"></path>
                        <path d="M220.635501,194.03376 C215.551691,194.03376 211.442355,198.140088 211.442355,203.220177 L211.442355,221.59301 C211.442355,226.673099 215.551691,230.779427 220.635501,230.779427 C225.719311,230.779427 229.828647,226.673099 229.828647,221.59301 L229.828647,203.220177 C229.828647,198.149275 225.719311,194.03376 220.635501,194.03376" id="XMLID_105_" fill="#FFFFFF"></path>
                    </g>
                </g>
                <path d="M541.703025,54.0123457 L0.432324841,466.234568" id="Line" stroke="#F14742" stroke-width="60" stroke-linecap="round" stroke-linejoin="round"></path>
            </g>
        </g>
    </g>
</svg>