<?xml version="1.0" encoding="UTF-8"?>
<svg width="1220px" height="574px" viewBox="0 0 1220 574" version="1.1" xmlns="http://www.w3.org/2000/svg" xmlns:xlink="http://www.w3.org/1999/xlink">
    <!-- Generator: Sketch 43.2 (39069) - http://www.bohemiancoding.com/sketch -->
    <title>Artboard</title>
    <desc>Created with Sketch.</desc>
    <defs></defs>
    <g id="Page-1" stroke="none" stroke-width="1" fill="none" fill-rule="evenodd">
        <g id="Artboard" fill="#FFFFFF">
            <path d="M121.546176,285.775274 C121.546176,285.775274 314.390324,153.036839 314.390324,84.8313774 C314.390324,64.7956217 306.294744,48 286.294895,48 C221.845384,48 62,234.025281 62,352.303153 C62,402.159079 108.828727,430.059847 131.922121,430.059847 C174.695887,430.059847 182.443564,409.553399 193.616159,409.553399 C197.891436,409.553399 222.859694,445.366226 260.269485,445.366226 C298.480964,445.366226 346.131322,413.408128 346.131322,404.377102 C346.131322,395.346077 346.131322,393.459672 339.743448,393.459672 C328.804173,393.459672 293.283907,421.059847 272.878282,421.059847 C235.942823,421.059847 235.942823,402.043384 235.942823,390.969431 C235.942823,352.303153 276.853931,311.331636 260.269485,311.331636 C215.072228,311.331636 199.799194,385.388232 191.979764,385.388232 C184.160335,385.388232 156.478128,406.727069 140.078633,406.727069 C114.051151,406.727069 108.828727,379.844639 108.828727,346.16433 C108.828727,251.681576 297.480969,-7.41403755 297.480969,89.1535224 C297.480969,121.508092 186.351165,210.228266 134.339588,256.763969 C112.079835,276.680175 121.546176,285.775274 121.546176,285.775274 Z" id="Path"></path>
            <path d="M46,257.955902 C46,263.177352 54.9323633,267.165782 87.558978,267.165782 C120.185593,267.165782 111.399791,298.677526 114.641944,294.986007 C142.251522,263.549705 204.365381,272.777975 219.459708,272.777975 C255.19752,272.777975 327.507366,272.953512 327.507366,258.770063 C327.507366,244.586614 313.812079,245.34059 221.403997,245.34059 C182.820909,245.34059 152.793818,245.34059 106.600643,245.34059 C60.407469,245.34059 46,253.833894 46,257.955902 Z" id="Path-2"></path>
            <path d="M800.520035,341.067216 C827.174267,341.067216 842.084051,355.636084 842.084051,388.397456 C842.084051,424.540455 788.871271,454.512687 763.579961,454.925525 C745.849567,455.214943 754.41254,468.875588 754.41254,474.758883 C754.41254,480.642179 767.00817,518.967223 806.288366,518.967223 C866.548477,518.967223 900.673573,490.563504 905.936205,490.204857 C911.198837,489.84621 911.035309,489.320319 911.035309,494.618258 C911.035309,504.773726 855.681669,537.714604 795.579512,537.714604 C735.477355,537.714604 705.796374,477.997855 705.958044,466.926258 C706.119714,455.854662 691.870469,454.925525 682.376547,454.925525 C607.955742,454.925525 612.613197,421.479942 612.613197,388.397456 C612.613197,356.996341 664.497607,250.137026 632.602191,250.137026 C520.208202,250.137026 541.759352,444.834115 484.252517,444.834115 C474.42064,444.834115 475.008552,444.834115 475.008552,433.939359 C475.008552,398.971942 544.203989,245.022427 497.994144,246.145963 C458.516627,247.105811 440.921484,301.612341 421.929924,301.612341 C395.378904,353.647731 387.385874,441.447938 364.57101,441.447938 C357.979281,441.447938 353,441.447938 353,415.034236 C353,371.989706 399.061454,220 424.434648,220 C438.82663,220 434.335761,263.710984 434.335761,263.710984 C434.335761,263.710984 463.243794,233.400676 497.605139,233.400676 C531.966485,233.400676 534.661112,268.416134 546.314349,268.416134 C557.967585,268.416134 591.567902,234.621562 634.321213,234.621562 C663.779563,234.621562 676.758761,255.665103 676.758761,281.196938 C676.758761,305.006495 646.714212,360.345924 646.714212,388.397456 C646.714212,416.448988 647.819487,435.272418 689.930431,435.272418 C704.930895,435.272418 705.958044,436.665743 705.958044,426.077298 C705.958044,402.809179 737.430897,341.067216 800.520035,341.067216 Z M775.515703,434.759152 C798.667278,434.759152 830.054424,403.32093 830.054424,388.724821 C830.054424,361.953033 821.398092,354.952935 798.456897,354.952935 C775.515703,354.952935 747.846794,388.717029 747.846794,410.438797 C747.846794,432.160565 752.364127,434.759152 775.515703,434.759152 Z" id="Combined-Shape"></path>
            <path d="M779.004267,211.396109 C779.004267,269.685686 810.092447,313.220311 917.927631,313.220311 C953.37509,313.220311 905.848717,313.220311 939.754043,313.220311 C949.720593,313.220311 950.870805,311.111587 950.870805,316.296886 C950.870805,321.482185 940.754043,330.881523 940.754043,361.275991 C940.754043,391.670458 965.491001,456.976028 1019.0526,456.976028 C1072.6142,456.976028 1121.01212,438.494952 1121.01212,430.42052 C1121.01212,422.346088 1119.35939,423.843823 1114.44624,423.843823 C1109.53309,423.843823 1059.36167,436.011343 1032.4439,436.011343 C1005.52612,436.011343 989.400548,394.820714 987.11714,370.487691 C984.833733,346.154668 988.797455,313.220311 1003.06684,313.220311 C1065.1156,313.220311 1118.27107,315.038861 1118.27107,303.808552 C1118.27107,292.578243 1101.01493,293.652431 1054.27515,293.794021 C1007.53536,293.93561 1003.06684,298.239069 1003.06684,286.129224 C1003.06684,278.996024 1059.87569,135.253186 1079.06473,135.253186 C1107.36082,135.253186 1001.90188,283.807154 1001.90188,283.807154 L1002.83054,290.6974 L1007.95663,295.648623 C1007.95663,295.648623 1098.53352,171.257249 1098.53352,142.072779 C1098.53352,118.293545 1087.80479,119.764945 1080.76081,119.764945 C1037.84785,119.764945 958.279674,271.067282 958.279674,292.488014 C958.279674,293.794021 955.713811,293.794021 954.228455,293.794021 L917.927631,293.794021 C823.910774,293.794021 821.394465,256.637301 821.394465,207.990361 C821.394465,161.842957 840.082606,113.231919 881.264372,113.231919 C910.167395,113.231919 911.79033,137.41606 911.79033,147.150192 C911.79033,186.958238 855.514832,201.860654 822.448666,205.8963 C819.961667,206.199833 821.262003,221.905469 823.910774,221.577492 C852.359339,218.054922 921.735416,202.397245 921.735416,147.777016 C921.735416,108.6473 890.392586,102.037351 880.766013,102.037351 C823.910774,102.037351 779.004267,143.150192 779.004267,211.396109 Z" id="Path-5"></path>
        </g>
    </g>
</svg>