<?xml version="1.0" encoding="UTF-8"?>
<svg width="700px" height="700px" viewBox="0 0 700 700" version="1.1" xmlns="http://www.w3.org/2000/svg" xmlns:xlink="http://www.w3.org/1999/xlink">
    <!-- Generator: Sketch 43.2 (39069) - http://www.bohemiancoding.com/sketch -->
    <title>Artboard</title>
    <desc>Created with Sketch.</desc>
    <defs></defs>
    <g id="Page-1" stroke="none" stroke-width="1" fill="none" fill-rule="evenodd">
        <g id="Artboard" fill-rule="nonzero">
            <g id="watch" transform="translate(119.000000, 105.000000)">
                <path d="M28.1887941,224.583333 L0,224.583333 L0,265.416667 L28.1887941,265.416667 C27.5229706,258.700944 27.1764706,251.889944 27.1764706,245 C27.1764706,238.110056 27.5216118,231.299056 28.1887941,224.583333 Z" id="XMLID_1531_" fill="#ACABB1"></path>
                <path d="M462,224.583333 L433.811206,224.583333 C434.477029,231.299056 434.823529,238.110056 434.823529,245 C434.823529,251.889944 434.478388,258.700944 433.811206,265.416667 L462,265.416667 L462,224.583333 Z" id="XMLID_1532_" fill="#ACABB1"></path>
                <path d="M231,0 L108.705882,0 L108.705882,81.6571389 C142.771588,56.0260556 185.113888,40.8333333 231,40.8333333 L231,0 Z" id="XMLID_1533_" fill="#FF5023"></path>
                <path d="M108.705882,408.342861 L108.705882,490 L231,490 L231,449.166667 C185.113888,449.166667 142.771588,433.973944 108.705882,408.342861 Z" id="XMLID_1534_" fill="#FF5023"></path>
                <path d="M231,490 L353.294118,490 L353.294118,408.342861 C319.228412,433.973944 276.886112,449.166667 231,449.166667 L231,490 Z" id="XMLID_1535_" fill="#BF3C1A"></path>
                <path d="M353.294118,81.6571389 L353.294118,0 L231,0 L231,40.8333333 C276.886112,40.8333333 319.228412,56.0260556 353.294118,81.6571389 Z" id="XMLID_1536_" fill="#BF3C1A"></path>
                <path d="M231,408.333333 C140.945329,408.333333 67.9411765,335.206278 67.9411765,245 C67.9411765,154.793722 140.945329,81.6666667 231,81.6666667 L231,40.8333333 C185.113888,40.8333333 142.771588,56.0260556 108.705882,81.6571389 C64.3090412,115.062889 33.9746647,166.203917 28.1887941,224.583333 C27.5229706,231.299056 27.1764706,238.110056 27.1764706,245 C27.1764706,251.889944 27.5216118,258.700944 28.1887941,265.416667 C33.9746647,323.796083 64.3090412,374.937111 108.705882,408.342861 C142.771588,433.973944 185.113888,449.166667 231,449.166667 L231,408.333333 Z" id="XMLID_1537_" fill="#EBEBEC"></path>
                <path d="M433.811206,224.583333 C428.025335,166.203917 397.690959,115.062889 353.294118,81.6571389 C319.228412,56.0260556 276.886112,40.8333333 231,40.8333333 L231,81.6666667 C321.054671,81.6666667 394.058824,154.793722 394.058824,245 C394.058824,335.206278 321.054671,408.333333 231,408.333333 L231,449.166667 C276.886112,449.166667 319.228412,433.973944 353.294118,408.342861 C397.690959,374.937111 428.025335,323.796083 433.811206,265.416667 C434.477029,258.700944 434.823529,251.889944 434.823529,245 C434.823529,238.110056 434.478388,231.299056 433.811206,224.583333 Z" id="XMLID_1538_" fill="#CDCDD0"></path>
                <path d="M67.9411765,245 C67.9411765,335.206278 140.945329,408.333333 231,408.333333 L231,265.416667 L210.617647,265.416667 L210.617647,163.333333 L231,163.333333 L231,81.6666667 C140.945329,81.6666667 67.9411765,154.793722 67.9411765,245 Z" id="XMLID_1539_" fill="#78B9EB"></path>
                <path d="M251.382353,163.333333 L251.382353,224.583333 L353.294118,224.583333 L353.294118,265.416667 L231,265.416667 L231,408.333333 C321.054671,408.333333 394.058824,335.206278 394.058824,245 C394.058824,154.793722 321.054671,81.6666667 231,81.6666667 L231,163.333333 L251.382353,163.333333 Z" id="XMLID_1540_" fill="#5A8BB0"></path>
                <polygon id="XMLID_1541_" fill="#FFFFFF" points="353.294118 224.583333 251.382353 224.583333 251.382353 163.333333 231 163.333333 210.617647 163.333333 210.617647 265.416667 231 265.416667 353.294118 265.416667"></polygon>
            </g>
        </g>
    </g>
</svg>